<svg width="180" height="180" viewBox="0 0 180 180" fill="none" xmlns="http://www.w3.org/2000/svg">
  <style>
    @media (prefers-color-scheme: light) {
      .background { fill: #111111; }
      .foreground { fill: #ffffff; }
    }
    @media (prefers-color-scheme: dark) {
      .background { fill: #ffffff; }
      .foreground { fill: #111111; }
    }
  </style>
  <rect class="background" width="180" height="180" rx="40" />
  <path
    class="foreground"
    fill-rule="evenodd"
    clip-rule="evenodd"
    d="M90 40C69.5655 40 53 56.5655 53 77V86H48C40.268 86 34 92.268 34 100V132C34 139.732 40.268 146 48 146H132C139.732 146 146 139.732 146 132V100C146 92.268 139.732 86 132 86H127V77C127 56.5655 110.435 40 90 40ZM111 86V77C111 65.402 101.598 56 90 56C78.402 56 69 65.402 69 77V86H111ZM90 102C83.3726 102 78 107.373 78 114C78 118.647 80.6436 122.676 84.5 124.684V133C84.5 136.038 86.9624 138.5 90 138.5C93.0376 138.5 95.5 136.038 95.5 133V124.684C99.3564 122.676 102 118.647 102 114C102 107.373 96.6274 102 90 102Z"
  />
</svg>